PathFileType	4	(X/Y/Z)
DataRate	CameraRate	NumFrames	NumMarkers	Units	OrigDataRate	OrigDataStartFrame	OrigNumFrames	
	120.0	120.0	9	39	mm	120.0	203	231
Frame#	Time	midhip	hip_r	hip_l	knee_r	knee_l	ankle_r	ankle_l	midasis	asis_r	asis_l	psis_r	psis_l	epicondLat_r	epicondLat_l	epicondMed_r	epicondMed_l	malleolusLat_r	malleolusLat_l	malleolusMedv_r	malleolusMedv_l	heel_r	heel_l	sternalnotch	xyphoidprocess	neck	subclavicle_r	subclavicle_l	toe_r	toe_l	thighwand_r	thighwand_l	upperleg1_r	upperleg1_l	upperleg2_r	upperleg2_l	shankwand_r	shankwand_l	lowerleg1_r	lowerleg1_l
	X1	Y1	Z1	X2	Y2	Z2	X3	Y3	Z3	X4	Y4	Z4	X5	Y5	Z5	X6	Y6	Z6	X7	Y7	Z7	X8	Y8	Z8	X9	Y9	Z9	X10	Y10	Z10	X11	Y11	Z11	X12	Y12	Z12	X13	Y13	Z13	X14	Y14	Z14	X15	Y15	Z15	X16	Y16	Z16	X17	Y17	Z17	X18	Y18	Z18	X19	Y19	Z19	X20	Y20	Z20	X21	Y21	Z21	X22	Y22	Z22	X23	Y23	Z23	X24	Y24	Z24	X25	Y25	Z25	X26	Y26	Z26	X27	Y27	Z27	X28	Y28	Z28	X29	Y29	Z29	X30	Y30	Z30	X31	Y31	Z31	X32	Y32	Z32	X33	Y33	Z33	X34	Y34	Z34	X35	Y35	Z35	X36	Y36	Z36	X37	Y37	Z37	X38	Y38	Z38	X39	Y39	Z39

	203	1.69167	1426.919	637.240	-349.984	1433.801	646.318	-295.838	1444.302	646.161	-412.812	1417.144	343.693	-279.359	1411.098	345.373	-411.458	1389.972	54.787	-248.355	1402.278	56.960	-428.591	1498.972	692.941	-349.008	1491.188	693.058	-262.300	1506.757	692.825	-435.717	1368.610	749.534	-315.061	1374.831	749.557	-400.804	1410.167	346.548	-233.981	1403.307	346.020	-458.817	1420.592	340.610	-326.383	1407.370	344.688	-366.929	1379.369	59.162	-216.880	1388.969	59.124	-458.162	1395.689	52.358	-275.353	1412.448	53.148	-397.609	1348.734	37.534	-265.996	1352.203	37.919	-418.774	1447.562	1025.553	-345.514	1538.080	916.092	-342.434	1367.895	1044.047	-355.583	1463.242	1019.490	-307.019	1470.043	1018.370	-396.455	1476.532	41.296	-228.730	1488.450	38.942	-458.475	1541.188	427.299	-284.309	1463.322	416.418	-518.146	1461.820	484.787	-252.284	1470.788	478.188	-437.961	1448.880	398.492	-250.618	1461.607	394.443	-419.505	1399.994	150.521	-155.623	1500.747	165.658	-411.034	1400.159	201.696	-224.014	1435.195	221.003	-422.438
	204	1.70000	1426.768	637.232	-349.992	1433.630	646.317	-295.852	1444.187	646.143	-412.821	1417.119	343.676	-279.288	1411.313	345.338	-411.610	1389.986	54.767	-248.343	1402.265	56.924	-428.621	1498.816	692.947	-348.999	1490.991	693.076	-262.299	1506.641	692.819	-435.699	1368.408	749.525	-315.110	1374.667	749.528	-400.855	1410.139	346.540	-233.911	1403.566	345.994	-458.976	1420.633	340.572	-326.348	1407.447	344.693	-367.087	1379.379	59.134	-216.868	1388.983	59.085	-458.204	1395.693	52.405	-275.343	1412.430	53.161	-397.629	1348.734	37.529	-265.979	1352.170	37.904	-418.823	1447.327	1025.569	-345.660	1537.792	916.064	-342.552	1367.763	1044.073	-355.757	1463.016	1019.516	-307.172	1469.791	1018.350	-396.599	1476.537	41.284	-228.740	1488.443	38.925	-458.477	1541.101	427.334	-284.161	1463.621	416.442	-518.206	1461.661	484.791	-252.245	1470.915	478.236	-438.003	1448.791	398.511	-250.569	1461.747	394.474	-419.565	1400.096	150.529	-155.601	1500.794	165.481	-411.060	1400.149	201.748	-223.962	1435.346	220.956	-422.535
	205	1.70833	1426.624	637.228	-349.991	1433.467	646.320	-295.846	1444.073	646.134	-412.811	1417.092	343.657	-279.197	1411.545	345.309	-411.768	1389.988	54.760	-248.322	1402.251	56.894	-428.652	1498.659	692.965	-348.973	1490.797	693.103	-262.271	1506.521	692.827	-435.675	1368.208	749.511	-315.146	1374.498	749.502	-400.891	1410.121	346.531	-233.819	1403.836	345.978	-459.140	1420.649	340.541	-326.277	1407.536	344.691	-367.227	1379.385	59.119	-216.845	1388.993	59.053	-458.246	1395.686	52.435	-275.325	1412.417	53.170	-397.645	1348.734	37.526	-265.951	1352.136	37.889	-418.873	1447.085	1025.561	-345.753	1537.505	916.021	-342.566	1367.607	1044.075	-355.890	1462.757	1019.518	-307.257	1469.566	1018.313	-396.679	1476.531	41.280	-228.743	1488.432	38.913	-458.474	1541.019	427.376	-284.011	1463.943	416.468	-518.244	1461.555	484.802	-252.200	1471.056	478.277	-438.020	1448.719	398.529	-250.498	1461.903	394.505	-419.603	1400.232	150.536	-155.572	1500.793	165.290	-411.042	1400.154	201.773	-223.889	1435.490	220.902	-422.615
	206	1.71667	1426.486	637.225	-349.980	1433.311	646.323	-295.823	1443.957	646.130	-412.785	1417.066	343.634	-279.086	1411.794	345.278	-411.932	1389.982	54.762	-248.291	1402.238	56.865	-428.682	1498.502	692.990	-348.932	1490.609	693.133	-262.220	1506.395	692.847	-435.643	1368.011	749.489	-315.166	1374.324	749.475	-400.908	1410.112	346.516	-233.706	1404.118	345.965	-459.309	1420.616	340.509	-326.161	1407.686	344.648	-367.378	1379.389	59.111	-216.808	1388.999	59.023	-458.285	1395.669	52.455	-275.304	1412.391	53.171	-397.660	1348.734	37.522	-265.911	1352.104	37.873	-418.922	1446.846	1025.550	-345.824	1537.235	915.987	-342.563	1367.449	1044.063	-356.004	1462.495	1019.512	-307.323	1469.351	1018.283	-396.731	1476.518	41.280	-228.738	1488.422	38.904	-458.466	1540.945	427.415	-283.871	1464.287	416.491	-518.258	1461.459	484.817	-252.150	1471.206	478.319	-438.011	1448.633	398.554	-250.402	1462.099	394.531	-419.640	1400.388	150.532	-155.531	1500.750	165.085	-410.981	1400.152	201.776	-223.784	1435.634	220.834	-422.698
	207	1.72500	1426.351	637.219	-349.960	1433.163	646.317	-295.787	1443.841	646.128	-412.745	1417.041	343.600	-278.955	1412.060	345.241	-412.102	1389.971	54.767	-248.250	1402.226	56.834	-428.710	1498.348	693.012	-348.878	1490.431	693.152	-262.156	1506.266	692.872	-435.600	1367.820	749.461	-315.169	1374.148	749.445	-400.904	1410.113	346.492	-233.572	1404.417	345.947	-459.484	1420.631	340.462	-326.048	1407.953	344.598	-367.471	1379.394	59.106	-216.761	1389.007	58.990	-458.322	1395.653	52.465	-275.264	1412.358	53.155	-397.672	1348.733	37.515	-265.857	1352.072	37.857	-418.971	1446.609	1025.544	-345.875	1536.991	915.977	-342.543	1367.275	1044.045	-356.125	1462.245	1019.518	-307.369	1469.133	1018.260	-396.769	1476.498	41.283	-228.725	1488.413	38.897	-458.452	1540.879	427.445	-283.746	1464.658	416.505	-518.250	1461.351	484.829	-252.086	1471.425	478.340	-437.987	1448.580	398.558	-250.304	1462.380	394.561	-419.656	1400.553	150.512	-155.474	1500.688	164.868	-410.889	1400.160	201.757	-223.665	1435.785	220.738	-422.784
	208	1.73333	1426.215	637.211	-349.928	1433.022	646.302	-295.739	1443.722	646.129	-412.695	1417.015	343.556	-278.804	1412.339	345.193	-412.279	1389.958	54.771	-248.201	1402.215	56.801	-428.739	1498.199	693.028	-348.813	1490.264	693.156	-262.084	1506.134	692.899	-435.542	1367.637	749.434	-315.153	1373.969	749.417	-400.879	1410.120	346.459	-233.416	1404.733	345.921	-459.667	1420.706	340.387	-325.955	1408.365	344.475	-367.541	1379.403	59.098	-216.703	1389.018	58.955	-458.360	1395.628	52.442	-275.215	1412.338	53.108	-397.691	1348.730	37.509	-265.788	1352.040	37.844	-419.020	1446.385	1025.518	-345.916	1536.761	915.949	-342.496	1367.049	1044.019	-356.234	1461.998	1019.504	-307.412	1468.936	1018.216	-396.782	1476.478	41.287	-228.706	1488.406	38.893	-458.432	1540.818	427.463	-283.639	1465.063	416.514	-518.226	1461.272	484.806	-251.993	1471.661	478.324	-437.936	1448.591	398.504	-250.211	1462.751	394.590	-419.667	1400.714	150.474	-155.395	1500.632	164.644	-410.782	1400.212	201.690	-223.549	1435.939	220.581	-422.860
	209	1.74167	1426.074	637.206	-349.884	1432.884	646.285	-295.679	1443.599	646.134	-412.634	1416.980	343.510	-278.631	1412.628	345.141	-412.463	1389.940	54.776	-248.143	1402.203	56.772	-428.768	1498.051	693.042	-348.738	1490.106	693.154	-262.006	1505.997	692.930	-435.470	1367.463	749.413	-315.117	1373.788	749.392	-400.834	1410.126	346.426	-233.238	1405.065	345.892	-459.857	1420.716	340.308	-325.833	1408.813	344.250	-367.696	1379.411	59.089	-216.635	1389.033	58.924	-458.402	1395.584	52.414	-275.151	1412.321	53.055	-397.718	1348.727	37.507	-265.701	1352.009	37.839	-419.071	1446.187	1025.476	-345.958	1536.575	915.918	-342.496	1366.802	1043.980	-356.310	1461.794	1019.471	-307.472	1468.750	1018.167	-396.794	1476.467	41.293	-228.686	1488.399	38.894	-458.408	1540.758	427.480	-283.547	1465.503	416.527	-518.186	1461.213	484.773	-251.882	1471.786	478.339	-437.875	1448.585	398.422	-250.096	1463.121	394.605	-419.701	1400.861	150.419	-155.290	1500.601	164.432	-410.676	1400.277	201.613	-223.428	1436.119	220.433	-422.952
	210	1.75000	1425.927	637.207	-349.826	1432.748	646.270	-295.605	1443.465	646.147	-412.560	1416.929	343.473	-278.434	1412.922	345.089	-412.648	1389.912	54.782	-248.078	1402.189	56.748	-428.802	1497.903	693.057	-348.653	1489.955	693.149	-261.921	1505.850	692.966	-435.385	1367.303	749.400	-315.064	1373.606	749.373	-400.772	1410.125	346.403	-233.035	1405.409	345.865	-460.050	1420.676	340.245	-325.674	1409.177	344.060	-367.875	1379.414	59.079	-216.557	1389.050	58.898	-458.450	1395.545	52.401	-275.074	1412.303	53.018	-397.751	1348.719	37.512	-265.597	1351.978	37.843	-419.124	1446.001	1025.444	-345.997	1536.418	915.911	-342.518	1366.583	1043.935	-356.368	1461.601	1019.441	-307.523	1468.578	1018.144	-396.813	1476.458	41.304	-228.663	1488.392	38.901	-458.381	1540.688	427.505	-283.462	1465.965	416.549	-518.134	1461.134	484.744	-251.745	1471.907	478.377	-437.821	1448.557	398.363	-249.954	1463.448	394.619	-419.730	1400.997	150.351	-155.159	1500.611	164.247	-410.594	1400.329	201.560	-223.309	1436.302	220.324	-423.048
	211	1.75833	1425.779	637.215	-349.761	1432.614	646.260	-295.522	1443.322	646.169	-412.478	1416.860	343.447	-278.217	1413.218	345.040	-412.831	1389.867	54.791	-248.009	1402.175	56.729	-428.845	1497.753	693.076	-348.563	1489.813	693.143	-261.830	1505.694	693.009	-435.295	1367.159	749.392	-314.996	1373.429	749.362	-400.699	1410.115	346.393	-232.810	1405.757	345.841	-460.241	1420.572	340.233	-325.465	1409.523	343.988	-368.000	1379.408	59.069	-216.472	1389.068	58.879	-458.507	1395.512	52.427	-275.002	1412.282	53.013	-397.785	1348.706	37.520	-265.480	1351.948	37.853	-419.182	1445.798	1025.438	-346.003	1536.242	915.929	-342.473	1366.370	1043.910	-356.423	1461.377	1019.439	-307.515	1468.405	1018.145	-396.810	1476.444	41.321	-228.638	1488.385	38.912	-458.355	1540.602	427.549	-283.383	1466.429	416.582	-518.080	1461.023	484.741	-251.562	1472.102	478.443	-437.769	1448.502	398.365	-249.767	1463.786	394.701	-419.738	1401.139	150.283	-155.012	1500.669	164.099	-410.562	1400.347	201.559	-223.190	1436.462	220.246	-423.129
